<svg id="Layer_1" data-name="Layer 1" xmlns="http://www.w3.org/2000/svg" width="272.98" height="264.4" viewBox="0 0 272.98 264.4">
  <defs>
    <style>
      .cls-1 {
        fill: #231f20;
      }

      .cls-2 {
        fill: none;
        stroke: #231f20;
        stroke-miterlimit: 10;
        stroke-width: 9px;
      }
    </style>
  </defs>
  <title>CasaPlanas_Logo</title>
  <g>
    <g>
      <g>
        <path class="cls-1" d="M30.39,28.93a19,19,0,0,1,14.15-5.69q11.51,0,16.82,7.63a16.65,16.65,0,0,1,3.16,8.59H54.89a13.09,13.09,0,0,0-2.36-5q-2.56-3-7.62-3A9.38,9.38,0,0,0,36.8,35.7q-3,4.23-3,12T37,59.29a9.84,9.84,0,0,0,8,3.86,9,9,0,0,0,7.55-3.31,14.66,14.66,0,0,0,2.38-5.35h9.56A20.71,20.71,0,0,1,58.1,66.74q-5.09,4.73-13,4.72-9.82,0-15.46-6.37T24,47.52Q24,35.46,30.39,28.93Z"/>
        <path class="cls-1" d="M80.58,24.12H91.47l16.29,46.06H97.33l-3-9.47h-17L74.2,70.18H64.13Zm-.64,28.65h11.8L85.92,34.65Z"/>
        <path class="cls-1" d="M115.76,56a9.27,9.27,0,0,0,1.76,4.72c1.59,1.9,4.32,2.84,8.2,2.84a17.6,17.6,0,0,0,5.64-.75q4.13-1.43,4.12-5.34a3.92,3.92,0,0,0-2-3.53,22,22,0,0,0-6.39-2.16l-5-1.09Q114.73,49,112,47.12q-4.67-3.19-4.66-10a13.22,13.22,0,0,1,4.56-10.28q4.56-4.1,13.38-4.1a20.53,20.53,0,0,1,12.57,3.86q5.21,3.87,5.46,11.21H134a6.61,6.61,0,0,0-3.71-5.91,12.76,12.76,0,0,0-5.74-1.16,10.94,10.94,0,0,0-6.09,1.5,4.76,4.76,0,0,0-2.27,4.19,4,4,0,0,0,2.24,3.69,27.92,27.92,0,0,0,6.12,1.91l8.08,1.9a20.58,20.58,0,0,1,8,3.35q4.13,3.24,4.12,9.4a13.23,13.23,0,0,1-4.88,10.49q-4.87,4.17-13.79,4.17-9.09,0-14.31-4.11A13.62,13.62,0,0,1,106.57,56Z"/>
        <path class="cls-1" d="M159.88,24.12h10.89l16.3,46.06H176.63l-3-9.47h-17l-3.12,9.47H143.44Zm-.63,28.65h11.8l-5.82-18.12Z"/>
      </g>
      <g>
        <path class="cls-1" d="M56.91,103.19q-4,3.38-11.55,3.37H35.77v16.57H26.2V77.06H46q6.84,0,10.91,3.57t4.06,11Q61,99.82,56.91,103.19ZM49.56,86.6a7.69,7.69,0,0,0-5.12-1.54H35.77V98.63h8.67A7.37,7.37,0,0,0,49.56,97q1.83-1.65,1.83-5.25C51.39,89.32,50.78,87.62,49.56,86.6Z"/>
        <path class="cls-1" d="M63.87,77.06H73.5v37.79h23v8.28H63.87Z"/>
        <path class="cls-1" d="M111.34,77.06h10.89l16.3,46.07H128.09l-3-9.47h-17L105,123.13H94.9Zm-.64,28.66h11.8L116.68,87.6Z"/>
      </g>
      <g>
        <path class="cls-1" d="M25.83,130.12H35.92L54.2,162.24V130.12h9v46.06H53.55L34.8,143.5v32.68h-9Z"/>
        <path class="cls-1" d="M80.58,130.12H91.47l16.29,46.06H97.33l-3-9.47h-17l-3.12,9.47H64.13Zm-.64,28.65h11.8l-5.82-18.12Z"/>
        <path class="cls-1" d="M115.76,162a9.27,9.27,0,0,0,1.76,4.72c1.59,1.9,4.32,2.84,8.2,2.84a17.6,17.6,0,0,0,5.64-.75q4.13-1.43,4.12-5.34a3.92,3.92,0,0,0-2-3.53,22,22,0,0,0-6.39-2.16l-5-1.09q-7.35-1.62-10.1-3.53-4.67-3.19-4.66-10a13.22,13.22,0,0,1,4.56-10.28q4.56-4.1,13.38-4.1a20.53,20.53,0,0,1,12.57,3.86q5.21,3.87,5.46,11.21H134a6.61,6.61,0,0,0-3.71-5.91,12.76,12.76,0,0,0-5.74-1.16,10.94,10.94,0,0,0-6.09,1.5,4.76,4.76,0,0,0-2.27,4.19,4,4,0,0,0,2.24,3.69,27.92,27.92,0,0,0,6.12,1.91l8.08,1.9a20.58,20.58,0,0,1,8,3.35q4.13,3.24,4.12,9.4a13.23,13.23,0,0,1-4.88,10.49q-4.87,4.17-13.79,4.17-9.09,0-14.31-4.11a13.62,13.62,0,0,1-5.21-11.3Z"/>
      </g>
    </g>
    <circle class="cls-2" cx="240.22" cy="231.64" r="28.26"/>
    <polygon points="9 251.47 9 9 255.12 9 255.12 175.18 264.12 175.18 264.12 0 0 0 0 260.47 179.07 260.47 179.07 251.47 9 251.47"/>
  </g>
</svg>
